<?xml version="1.0" encoding="utf-8"?>
<!-- Generator: Adobe Illustrator 16.0.4, SVG Export Plug-In . SVG Version: 6.00 Build 0)  -->
<!DOCTYPE svg PUBLIC "-//W3C//DTD SVG 1.1//EN" "http://www.w3.org/Graphics/SVG/1.1/DTD/svg11.dtd">
<svg version="1.1" id="圖層_1" xmlns="http://www.w3.org/2000/svg" xmlns:xlink="http://www.w3.org/1999/xlink" x="0px" y="0px"
	 width="28.35px" height="28.35px" viewBox="0 0 28.35 28.35" enable-background="new 0 0 28.35 28.35" xml:space="preserve">
<g id="Livello_1_1_">
</g>
<g>
	<g>
		<path d="M25.132,7.245h-1.646V5.54c0-0.39-0.285-0.721-0.672-0.78c-0.068-0.009-1.672-0.243-3.604,0.108
			c-2.154,0.392-3.871,1.358-5.035,2.819c-1.165-1.46-2.882-2.427-5.036-2.819C7.208,4.518,5.604,4.751,5.536,4.76
			C5.151,4.819,4.865,5.15,4.865,5.54v1.705H3.219c-0.435,0-0.788,0.352-0.788,0.788v14.853c0,0.254,0.124,0.494,0.332,0.643
			c0.208,0.147,0.475,0.186,0.716,0.102c0.058-0.021,5.966-2.036,10.369-0.026c0.208,0.093,0.447,0.093,0.654,0
			c4.392-2.005,10.312,0.006,10.371,0.026c0.084,0.029,0.172,0.043,0.26,0.043c0.162,0,0.32-0.049,0.457-0.145
			c0.205-0.148,0.33-0.389,0.33-0.643V8.033C25.919,7.597,25.568,7.245,25.132,7.245z M4.007,21.831V8.821h0.858v10.498
			c0,0.229,0.1,0.445,0.273,0.596c0.174,0.149,0.405,0.217,0.631,0.182c0.044-0.005,3.467-0.476,5.969,1.24
			C8.656,20.811,5.572,21.42,4.007,21.831z M13.386,20.625c-1.101-0.994-2.537-1.667-4.247-1.978
			c-0.823-0.15-1.587-0.195-2.197-0.195c-0.182,0-0.349,0.005-0.501,0.011V6.264l0,0c1.515-0.068,5.2,0.094,6.945,3.052V20.625z
			 M14.964,9.316c1.736-2.945,5.43-3.115,6.943-3.05v12.197c-0.662-0.026-1.631-0.011-2.697,0.185
			c-1.711,0.311-3.145,0.983-4.246,1.978V9.316L14.964,9.316z M16.609,21.339c2.502-1.719,5.928-1.249,5.971-1.243
			c0.227,0.036,0.459-0.031,0.631-0.181c0.176-0.15,0.275-0.368,0.275-0.597V8.821h0.857v13.01
			C22.777,21.42,19.693,20.811,16.609,21.339z"/>
	</g>
</g>
</svg>
