<?xml version="1.0" encoding="utf-8"?>
<!-- Generator: Adobe Illustrator 16.0.4, SVG Export Plug-In . SVG Version: 6.00 Build 0)  -->
<!DOCTYPE svg PUBLIC "-//W3C//DTD SVG 1.1//EN" "http://www.w3.org/Graphics/SVG/1.1/DTD/svg11.dtd">
<svg version="1.1" id="圖層_1" xmlns="http://www.w3.org/2000/svg" xmlns:xlink="http://www.w3.org/1999/xlink" x="0px" y="0px"
	 width="28.35px" height="28.35px" viewBox="0 0 28.35 28.35" enable-background="new 0 0 28.35 28.35" xml:space="preserve">
<g id="Livello_1_1_">
</g>
<g>
	<path d="M22.91,7.865H5.438c-1.605,0-2.912,1.306-2.912,2.912v10.678c0,1.605,1.306,2.912,2.912,2.912H22.91
		c1.607,0,2.913-1.307,2.913-2.912V10.778C25.823,9.171,24.518,7.865,22.91,7.865z M23.881,21.455c0,0.535-0.435,0.971-0.971,0.971
		H5.438c-0.535,0-0.971-0.436-0.971-0.971V10.778c0-0.535,0.436-0.971,0.971-0.971H22.91c0.536,0,0.971,0.436,0.971,0.971V21.455z"
		/>
	<rect x="14.175" y="13.69" width="6.795" height="1.941"/>
	<rect x="14.175" y="17.573" width="6.795" height="1.941"/>
	<path d="M10.291,16.602h-1.94c-1.071,0-1.942,0.869-1.942,1.941v1.941h5.824v-1.941C12.233,17.471,11.364,16.602,10.291,16.602z"/>
	<circle cx="9.322" cy="13.69" r="1.941"/>
	<path d="M11.262,6.895h1.941c0-0.535,0.435-0.971,0.971-0.971c0.535,0,0.972,0.436,0.972,0.971h1.94
		c0-1.605-1.307-2.912-2.912-2.912C12.569,3.983,11.262,5.289,11.262,6.895z"/>
</g>
</svg>
